<?xml version="1.0" encoding="UTF-8"?>
<svg xmlns="http://www.w3.org/2000/svg" xmlns:xlink="http://www.w3.org/1999/xlink" width="854" height="480" viewBox="0 0 854 480">
<defs>
<g>
<g id="glyph-0-0">
<path d="M 6.113281 -5.046875 L 5.777344 -5.046875 C 5.746094 -5.164062 5.695312 -5.304688 5.617188 -5.464844 C 5.539062 -5.628906 5.453125 -5.78125 5.359375 -5.921875 C 5.261719 -6.074219 5.15625 -6.203125 5.039062 -6.316406 C 4.925781 -6.429688 4.8125 -6.492188 4.703125 -6.507812 C 4.601562 -6.523438 4.476562 -6.53125 4.324219 -6.539062 C 4.167969 -6.542969 4.027344 -6.546875 3.898438 -6.546875 L 3.613281 -6.546875 L 3.613281 -1.007812 C 3.613281 -0.898438 3.636719 -0.800781 3.679688 -0.710938 C 3.726562 -0.621094 3.808594 -0.550781 3.921875 -0.503906 C 3.980469 -0.480469 4.101562 -0.449219 4.289062 -0.410156 C 4.476562 -0.371094 4.621094 -0.351562 4.726562 -0.347656 L 4.726562 0 L 1.453125 0 L 1.453125 -0.347656 C 1.546875 -0.351562 1.683594 -0.367188 1.871094 -0.386719 C 2.058594 -0.40625 2.1875 -0.429688 2.261719 -0.460938 C 2.367188 -0.5 2.445312 -0.5625 2.496094 -0.640625 C 2.546875 -0.722656 2.574219 -0.828125 2.574219 -0.960938 L 2.574219 -6.546875 L 2.289062 -6.546875 C 2.1875 -6.546875 2.0625 -6.546875 1.914062 -6.539062 C 1.765625 -6.535156 1.621094 -6.523438 1.484375 -6.507812 C 1.375 -6.496094 1.265625 -6.429688 1.148438 -6.316406 C 1.035156 -6.199219 0.929688 -6.070312 0.828125 -5.921875 C 0.734375 -5.777344 0.644531 -5.621094 0.570312 -5.457031 C 0.496094 -5.292969 0.445312 -5.15625 0.414062 -5.046875 L 0.0742188 -5.046875 L 0.0742188 -6.929688 L 6.113281 -6.929688 Z "/>
</g>
<g id="glyph-0-1">
<path d="M 2.6875 0 L 0.359375 0 L 0.359375 -0.320312 C 0.4375 -0.328125 0.511719 -0.335938 0.59375 -0.34375 C 0.671875 -0.347656 0.742188 -0.359375 0.800781 -0.378906 C 0.890625 -0.410156 0.960938 -0.460938 1.003906 -0.535156 C 1.046875 -0.609375 1.070312 -0.703125 1.070312 -0.820312 L 1.070312 -3.789062 C 1.070312 -3.894531 1.046875 -3.988281 1 -4.074219 C 0.953125 -4.160156 0.886719 -4.234375 0.800781 -4.292969 C 0.738281 -4.332031 0.648438 -4.363281 0.53125 -4.390625 C 0.414062 -4.417969 0.308594 -4.4375 0.210938 -4.445312 L 0.210938 -4.765625 L 1.910156 -4.875 L 1.976562 -4.804688 L 1.976562 -0.878906 C 1.976562 -0.765625 2 -0.671875 2.042969 -0.59375 C 2.085938 -0.519531 2.15625 -0.464844 2.25 -0.429688 C 2.320312 -0.398438 2.390625 -0.375 2.457031 -0.359375 C 2.527344 -0.339844 2.601562 -0.328125 2.6875 -0.320312 L 2.6875 0 M 2.074219 -6.773438 C 2.074219 -6.585938 2.015625 -6.425781 1.890625 -6.285156 C 1.769531 -6.148438 1.621094 -6.078125 1.441406 -6.078125 C 1.273438 -6.078125 1.128906 -6.144531 1.007812 -6.277344 C 0.886719 -6.410156 0.824219 -6.558594 0.824219 -6.726562 C 0.824219 -6.90625 0.886719 -7.0625 1.007812 -7.195312 C 1.128906 -7.332031 1.273438 -7.398438 1.441406 -7.398438 C 1.625 -7.398438 1.777344 -7.335938 1.898438 -7.210938 C 2.015625 -7.085938 2.074219 -6.9375 2.074219 -6.773438 Z "/>
</g>
<g id="glyph-0-2">
<path d="M 8.589844 0 L 6.246094 0 L 6.246094 -0.320312 C 6.320312 -0.328125 6.394531 -0.335938 6.472656 -0.34375 C 6.546875 -0.347656 6.617188 -0.359375 6.675781 -0.382812 C 6.765625 -0.410156 6.832031 -0.460938 6.878906 -0.535156 C 6.921875 -0.609375 6.945312 -0.703125 6.945312 -0.820312 L 6.945312 -3.304688 C 6.945312 -3.644531 6.867188 -3.90625 6.710938 -4.089844 C 6.558594 -4.273438 6.363281 -4.363281 6.132812 -4.367188 C 5.972656 -4.363281 5.824219 -4.339844 5.683594 -4.292969 C 5.542969 -4.242188 5.414062 -4.175781 5.296875 -4.085938 C 5.203125 -4.015625 5.125 -3.9375 5.0625 -3.855469 C 4.996094 -3.773438 4.949219 -3.703125 4.917969 -3.648438 L 4.917969 -0.867188 C 4.917969 -0.753906 4.9375 -0.660156 4.976562 -0.589844 C 5.015625 -0.515625 5.082031 -0.460938 5.175781 -0.421875 C 5.25 -0.390625 5.316406 -0.367188 5.378906 -0.355469 C 5.4375 -0.339844 5.515625 -0.328125 5.617188 -0.320312 L 5.617188 0 L 3.320312 0 L 3.320312 -0.320312 C 3.394531 -0.328125 3.46875 -0.335938 3.539062 -0.34375 C 3.609375 -0.347656 3.671875 -0.359375 3.730469 -0.382812 C 3.820312 -0.410156 3.890625 -0.460938 3.933594 -0.535156 C 3.976562 -0.609375 4 -0.703125 4 -0.820312 L 4 -3.304688 C 4 -3.644531 3.921875 -3.90625 3.765625 -4.089844 C 3.613281 -4.273438 3.417969 -4.363281 3.1875 -4.367188 C 3.027344 -4.363281 2.875 -4.339844 2.734375 -4.289062 C 2.597656 -4.238281 2.46875 -4.171875 2.347656 -4.082031 C 2.253906 -4.011719 2.175781 -3.929688 2.109375 -3.839844 C 2.042969 -3.75 1.996094 -3.683594 1.960938 -3.636719 L 1.960938 -0.878906 C 1.960938 -0.769531 1.984375 -0.675781 2.03125 -0.601562 C 2.078125 -0.527344 2.144531 -0.46875 2.234375 -0.429688 C 2.304688 -0.398438 2.375 -0.371094 2.445312 -0.355469 C 2.519531 -0.339844 2.597656 -0.328125 2.6875 -0.320312 L 2.6875 0 L 0.347656 0 L 0.347656 -0.320312 C 0.421875 -0.328125 0.5 -0.335938 0.578125 -0.34375 C 0.660156 -0.347656 0.726562 -0.359375 0.785156 -0.378906 C 0.878906 -0.410156 0.945312 -0.460938 0.988281 -0.535156 C 1.03125 -0.609375 1.054688 -0.703125 1.054688 -0.820312 L 1.054688 -3.808594 C 1.054688 -3.914062 1.03125 -4.007812 0.984375 -4.089844 C 0.9375 -4.171875 0.871094 -4.242188 0.785156 -4.300781 C 0.722656 -4.339844 0.648438 -4.371094 0.554688 -4.398438 C 0.464844 -4.421875 0.371094 -4.4375 0.273438 -4.445312 L 0.273438 -4.765625 L 1.882812 -4.875 L 1.953125 -4.804688 L 1.953125 -4.117188 L 1.988281 -4.117188 C 2.070312 -4.199219 2.167969 -4.292969 2.285156 -4.40625 C 2.402344 -4.515625 2.511719 -4.605469 2.613281 -4.671875 C 2.726562 -4.75 2.867188 -4.816406 3.039062 -4.867188 C 3.210938 -4.921875 3.394531 -4.945312 3.59375 -4.945312 C 3.90625 -4.945312 4.175781 -4.863281 4.398438 -4.695312 C 4.625 -4.527344 4.785156 -4.324219 4.882812 -4.085938 C 5 -4.199219 5.101562 -4.300781 5.191406 -4.386719 C 5.28125 -4.472656 5.398438 -4.566406 5.546875 -4.664062 C 5.667969 -4.746094 5.816406 -4.816406 5.980469 -4.867188 C 6.148438 -4.921875 6.335938 -4.945312 6.539062 -4.945312 C 6.945312 -4.945312 7.269531 -4.8125 7.503906 -4.546875 C 7.742188 -4.277344 7.859375 -3.867188 7.859375 -3.316406 L 7.859375 -0.867188 C 7.859375 -0.753906 7.882812 -0.660156 7.921875 -0.589844 C 7.960938 -0.515625 8.027344 -0.460938 8.121094 -0.421875 C 8.195312 -0.390625 8.269531 -0.367188 8.34375 -0.355469 C 8.414062 -0.339844 8.496094 -0.328125 8.589844 -0.320312 Z "/>
</g>
<g id="glyph-0-3">
<path d="M 4.628906 -1.132812 C 4.425781 -0.75 4.15625 -0.441406 3.820312 -0.214844 C 3.480469 0.0117188 3.089844 0.125 2.652344 0.125 C 2.265625 0.125 1.925781 0.0585938 1.632812 -0.078125 C 1.34375 -0.214844 1.101562 -0.398438 0.914062 -0.632812 C 0.722656 -0.867188 0.582031 -1.140625 0.492188 -1.453125 C 0.398438 -1.765625 0.351562 -2.097656 0.351562 -2.445312 C 0.351562 -2.757812 0.402344 -3.066406 0.5 -3.367188 C 0.601562 -3.667969 0.746094 -3.9375 0.9375 -4.179688 C 1.121094 -4.410156 1.351562 -4.597656 1.628906 -4.738281 C 1.902344 -4.878906 2.210938 -4.949219 2.554688 -4.953125 C 2.90625 -4.949219 3.207031 -4.894531 3.457031 -4.785156 C 3.707031 -4.675781 3.910156 -4.523438 4.066406 -4.332031 C 4.21875 -4.148438 4.328125 -3.933594 4.402344 -3.6875 C 4.476562 -3.4375 4.511719 -3.171875 4.511719 -2.882812 L 4.511719 -2.558594 L 1.324219 -2.558594 C 1.324219 -2.242188 1.351562 -1.953125 1.414062 -1.699219 C 1.472656 -1.441406 1.570312 -1.210938 1.699219 -1.015625 C 1.824219 -0.828125 1.992188 -0.679688 2.195312 -0.570312 C 2.402344 -0.460938 2.648438 -0.40625 2.929688 -0.40625 C 3.21875 -0.40625 3.46875 -0.472656 3.679688 -0.609375 C 3.890625 -0.746094 4.09375 -0.988281 4.289062 -1.34375 L 4.628906 -1.132812 M 3.550781 -2.96875 C 3.550781 -3.152344 3.535156 -3.34375 3.503906 -3.554688 C 3.472656 -3.761719 3.421875 -3.933594 3.355469 -4.074219 C 3.28125 -4.222656 3.175781 -4.34375 3.046875 -4.4375 C 2.917969 -4.53125 2.75 -4.578125 2.542969 -4.578125 C 2.203125 -4.578125 1.917969 -4.4375 1.691406 -4.152344 C 1.464844 -3.871094 1.34375 -3.476562 1.324219 -2.96875 Z "/>
</g>
<g id="glyph-0-4">
</g>
<g id="glyph-0-5">
<path d="M 3.527344 0.164062 C 3.113281 0.164062 2.71875 0.0859375 2.339844 -0.078125 C 1.960938 -0.242188 1.625 -0.476562 1.332031 -0.78125 C 1.042969 -1.089844 0.8125 -1.460938 0.640625 -1.902344 C 0.46875 -2.34375 0.382812 -2.84375 0.382812 -3.394531 C 0.382812 -3.949219 0.464844 -4.453125 0.632812 -4.902344 C 0.804688 -5.355469 1.039062 -5.742188 1.335938 -6.070312 C 1.632812 -6.390625 1.984375 -6.640625 2.386719 -6.816406 C 2.789062 -6.992188 3.21875 -7.078125 3.679688 -7.078125 C 4.019531 -7.078125 4.328125 -7.039062 4.605469 -6.953125 C 4.882812 -6.867188 5.144531 -6.75 5.394531 -6.597656 L 5.59375 -6.929688 L 5.984375 -6.929688 L 6.03125 -4.457031 L 5.628906 -4.457031 C 5.578125 -4.699219 5.5 -4.960938 5.394531 -5.242188 C 5.292969 -5.523438 5.167969 -5.761719 5.03125 -5.957031 C 4.875 -6.179688 4.6875 -6.351562 4.472656 -6.476562 C 4.257812 -6.601562 4.015625 -6.664062 3.738281 -6.664062 C 3.421875 -6.664062 3.128906 -6.59375 2.855469 -6.453125 C 2.585938 -6.316406 2.351562 -6.109375 2.152344 -5.835938 C 1.964844 -5.570312 1.816406 -5.234375 1.707031 -4.828125 C 1.601562 -4.421875 1.546875 -3.964844 1.546875 -3.464844 C 1.546875 -3.019531 1.605469 -2.613281 1.714844 -2.246094 C 1.828125 -1.875 1.988281 -1.550781 2.195312 -1.269531 C 2.40625 -0.992188 2.652344 -0.777344 2.933594 -0.621094 C 3.21875 -0.464844 3.539062 -0.386719 3.890625 -0.386719 C 4.152344 -0.386719 4.394531 -0.425781 4.617188 -0.511719 C 4.835938 -0.59375 5.027344 -0.703125 5.191406 -0.839844 C 5.355469 -0.984375 5.496094 -1.144531 5.621094 -1.328125 C 5.742188 -1.511719 5.84375 -1.710938 5.921875 -1.921875 L 6.289062 -1.75 C 6.007812 -1.0625 5.636719 -0.570312 5.175781 -0.277344 C 4.714844 0.0195312 4.164062 0.164062 3.527344 0.164062 Z "/>
</g>
<g id="glyph-0-6">
<path d="M 5.046875 -2.457031 C 5.046875 -2.117188 4.996094 -1.785156 4.886719 -1.457031 C 4.78125 -1.128906 4.625 -0.851562 4.429688 -0.625 C 4.203125 -0.363281 3.941406 -0.171875 3.644531 -0.0429688 C 3.347656 0.0820312 3.015625 0.144531 2.648438 0.148438 C 2.34375 0.144531 2.050781 0.0898438 1.773438 -0.0273438 C 1.496094 -0.140625 1.25 -0.3125 1.035156 -0.53125 C 0.824219 -0.75 0.65625 -1.015625 0.53125 -1.332031 C 0.40625 -1.644531 0.34375 -1.996094 0.34375 -2.386719 C 0.34375 -3.140625 0.5625 -3.753906 1 -4.234375 C 1.4375 -4.710938 2.011719 -4.949219 2.722656 -4.953125 C 3.398438 -4.949219 3.953125 -4.722656 4.390625 -4.269531 C 4.828125 -3.816406 5.046875 -3.210938 5.046875 -2.457031 M 4.039062 -2.445312 C 4.039062 -2.691406 4.011719 -2.949219 3.964844 -3.21875 C 3.914062 -3.492188 3.84375 -3.722656 3.746094 -3.910156 C 3.640625 -4.113281 3.503906 -4.273438 3.332031 -4.398438 C 3.164062 -4.519531 2.957031 -4.578125 2.710938 -4.578125 C 2.460938 -4.578125 2.246094 -4.519531 2.070312 -4.394531 C 1.890625 -4.269531 1.746094 -4.101562 1.636719 -3.886719 C 1.53125 -3.6875 1.457031 -3.460938 1.417969 -3.207031 C 1.375 -2.953125 1.351562 -2.707031 1.351562 -2.46875 C 1.351562 -2.15625 1.378906 -1.871094 1.429688 -1.605469 C 1.480469 -1.339844 1.558594 -1.101562 1.671875 -0.894531 C 1.78125 -0.683594 1.921875 -0.523438 2.089844 -0.402344 C 2.257812 -0.285156 2.464844 -0.226562 2.710938 -0.226562 C 3.121094 -0.226562 3.441406 -0.421875 3.679688 -0.816406 C 3.917969 -1.210938 4.039062 -1.753906 4.039062 -2.445312 Z "/>
</g>
<g id="glyph-0-7">
<path d="M 4.75 -4.242188 C 4.941406 -4.015625 5.09375 -3.75 5.199219 -3.449219 C 5.304688 -3.148438 5.355469 -2.804688 5.355469 -2.417969 C 5.355469 -2.035156 5.292969 -1.6875 5.164062 -1.375 C 5.039062 -1.058594 4.871094 -0.792969 4.664062 -0.570312 C 4.445312 -0.347656 4.203125 -0.175781 3.9375 -0.0546875 C 3.667969 0.0664062 3.386719 0.125 3.085938 0.125 C 2.796875 0.125 2.558594 0.09375 2.375 0.03125 C 2.1875 -0.0351562 2.035156 -0.113281 1.917969 -0.199219 L 1.878906 -0.199219 L 1.878906 1.25 C 1.878906 1.367188 1.902344 1.464844 1.949219 1.542969 C 1.992188 1.621094 2.0625 1.675781 2.15625 1.714844 C 2.234375 1.742188 2.347656 1.769531 2.492188 1.800781 C 2.636719 1.828125 2.757812 1.84375 2.851562 1.84375 L 2.851562 2.167969 L 0.160156 2.167969 L 0.160156 1.84375 C 0.261719 1.839844 0.359375 1.832031 0.453125 1.820312 C 0.546875 1.8125 0.632812 1.796875 0.707031 1.773438 C 0.804688 1.738281 0.875 1.683594 0.914062 1.601562 C 0.953125 1.519531 0.972656 1.425781 0.972656 1.3125 L 0.972656 -3.808594 C 0.972656 -3.90625 0.945312 -4 0.898438 -4.09375 C 0.851562 -4.183594 0.785156 -4.257812 0.707031 -4.3125 C 0.648438 -4.351562 0.566406 -4.378906 0.464844 -4.402344 C 0.359375 -4.421875 0.257812 -4.4375 0.160156 -4.445312 L 0.160156 -4.765625 L 1.800781 -4.875 L 1.871094 -4.8125 L 1.871094 -4.273438 L 1.910156 -4.261719 C 2.078125 -4.457031 2.289062 -4.621094 2.539062 -4.75 C 2.789062 -4.882812 3.039062 -4.945312 3.285156 -4.945312 C 3.585938 -4.945312 3.859375 -4.882812 4.109375 -4.757812 C 4.359375 -4.628906 4.570312 -4.457031 4.75 -4.242188 M 3.953125 -0.78125 C 4.085938 -0.984375 4.179688 -1.21875 4.242188 -1.484375 C 4.304688 -1.75 4.335938 -2.050781 4.335938 -2.378906 C 4.335938 -2.617188 4.308594 -2.863281 4.257812 -3.117188 C 4.207031 -3.367188 4.125 -3.585938 4.015625 -3.769531 C 3.902344 -3.957031 3.757812 -4.109375 3.578125 -4.226562 C 3.398438 -4.34375 3.183594 -4.40625 2.933594 -4.40625 C 2.695312 -4.40625 2.488281 -4.351562 2.320312 -4.246094 C 2.148438 -4.140625 2.003906 -4.011719 1.878906 -3.867188 L 1.878906 -1.019531 C 1.910156 -0.933594 1.957031 -0.839844 2.023438 -0.746094 C 2.089844 -0.652344 2.164062 -0.570312 2.246094 -0.503906 C 2.347656 -0.421875 2.457031 -0.355469 2.574219 -0.304688 C 2.691406 -0.253906 2.832031 -0.230469 3.003906 -0.230469 C 3.183594 -0.230469 3.359375 -0.277344 3.53125 -0.375 C 3.699219 -0.46875 3.839844 -0.605469 3.953125 -0.78125 Z "/>
</g>
<g id="glyph-0-8">
<path d="M 2.609375 0 L 0.257812 0 L 0.257812 -0.320312 C 0.332031 -0.328125 0.414062 -0.335938 0.5 -0.34375 C 0.582031 -0.351562 0.652344 -0.363281 0.707031 -0.382812 C 0.800781 -0.410156 0.867188 -0.460938 0.914062 -0.535156 C 0.957031 -0.609375 0.980469 -0.703125 0.980469 -0.820312 L 0.980469 -6.402344 C 0.980469 -6.519531 0.957031 -6.628906 0.90625 -6.730469 C 0.855469 -6.832031 0.789062 -6.914062 0.707031 -6.972656 C 0.648438 -7.011719 0.542969 -7.046875 0.386719 -7.078125 C 0.230469 -7.113281 0.105469 -7.132812 0.0078125 -7.140625 L 0.0078125 -7.453125 L 1.820312 -7.558594 L 1.890625 -7.484375 L 1.890625 -0.878906 C 1.890625 -0.765625 1.910156 -0.671875 1.953125 -0.597656 C 1.996094 -0.523438 2.0625 -0.46875 2.15625 -0.429688 C 2.230469 -0.398438 2.300781 -0.371094 2.371094 -0.355469 C 2.441406 -0.339844 2.519531 -0.328125 2.609375 -0.320312 Z "/>
</g>
<g id="glyph-0-9">
<path d="M 4.992188 0 L 2.78125 0 L 2.78125 -0.320312 C 2.929688 -0.339844 3.054688 -0.355469 3.15625 -0.371094 C 3.261719 -0.386719 3.3125 -0.429688 3.3125 -0.5 C 3.3125 -0.527344 3.296875 -0.574219 3.261719 -0.632812 C 3.230469 -0.695312 3.199219 -0.753906 3.164062 -0.804688 C 3.085938 -0.933594 2.972656 -1.101562 2.832031 -1.316406 C 2.6875 -1.53125 2.515625 -1.785156 2.308594 -2.082031 C 2.140625 -1.871094 1.984375 -1.664062 1.839844 -1.460938 C 1.695312 -1.261719 1.546875 -1.050781 1.390625 -0.824219 C 1.367188 -0.792969 1.34375 -0.75 1.320312 -0.703125 C 1.296875 -0.65625 1.28125 -0.613281 1.28125 -0.585938 C 1.28125 -0.515625 1.328125 -0.453125 1.421875 -0.40625 C 1.515625 -0.359375 1.65625 -0.328125 1.839844 -0.3125 L 1.839844 0 L 0.0585938 0 L 0.0585938 -0.304688 C 0.28125 -0.367188 0.457031 -0.445312 0.59375 -0.539062 C 0.726562 -0.632812 0.851562 -0.746094 0.964844 -0.882812 C 1.066406 -1.015625 1.207031 -1.195312 1.390625 -1.421875 C 1.570312 -1.652344 1.804688 -1.960938 2.089844 -2.355469 C 1.925781 -2.589844 1.722656 -2.878906 1.484375 -3.222656 C 1.242188 -3.566406 1.046875 -3.851562 0.890625 -4.078125 C 0.804688 -4.199219 0.707031 -4.300781 0.597656 -4.378906 C 0.488281 -4.453125 0.335938 -4.492188 0.136719 -4.492188 L 0.136719 -4.8125 L 2.230469 -4.8125 L 2.230469 -4.492188 C 2.128906 -4.492188 2.023438 -4.484375 1.925781 -4.472656 C 1.824219 -4.460938 1.773438 -4.429688 1.773438 -4.382812 C 1.773438 -4.355469 1.785156 -4.324219 1.804688 -4.289062 C 1.824219 -4.25 1.847656 -4.210938 1.875 -4.171875 C 1.949219 -4.058594 2.058594 -3.886719 2.210938 -3.65625 C 2.359375 -3.425781 2.523438 -3.183594 2.699219 -2.925781 C 2.8125 -3.082031 2.945312 -3.261719 3.097656 -3.472656 C 3.25 -3.679688 3.390625 -3.878906 3.515625 -4.066406 C 3.53125 -4.089844 3.542969 -4.117188 3.554688 -4.152344 C 3.570312 -4.1875 3.574219 -4.21875 3.574219 -4.253906 C 3.574219 -4.320312 3.519531 -4.375 3.40625 -4.417969 C 3.292969 -4.457031 3.1875 -4.484375 3.085938 -4.5 L 3.085938 -4.8125 L 4.863281 -4.8125 L 4.863281 -4.511719 C 4.613281 -4.445312 4.417969 -4.371094 4.277344 -4.28125 C 4.136719 -4.191406 4.019531 -4.085938 3.921875 -3.96875 C 3.8125 -3.835938 3.6875 -3.671875 3.539062 -3.476562 C 3.390625 -3.28125 3.183594 -3.007812 2.914062 -2.65625 C 3.210938 -2.238281 3.453125 -1.898438 3.636719 -1.628906 C 3.824219 -1.363281 4.011719 -1.089844 4.199219 -0.804688 C 4.292969 -0.664062 4.398438 -0.550781 4.515625 -0.464844 C 4.628906 -0.382812 4.789062 -0.335938 4.992188 -0.320312 Z "/>
</g>
<g id="glyph-0-10">
<path d="M 3.324219 -0.210938 C 3.113281 -0.121094 2.914062 -0.046875 2.726562 0.0117188 C 2.535156 0.0742188 2.304688 0.101562 2.03125 0.101562 C 1.628906 0.101562 1.34375 0 1.179688 -0.203125 C 1.015625 -0.40625 0.933594 -0.695312 0.933594 -1.0625 L 0.933594 -4.328125 L 0.0625 -4.328125 L 0.0625 -4.796875 L 0.953125 -4.796875 L 0.953125 -6.292969 L 1.839844 -6.292969 L 1.839844 -4.796875 L 3.222656 -4.796875 L 3.222656 -4.328125 L 1.851562 -4.328125 L 1.851562 -1.636719 C 1.851562 -1.433594 1.859375 -1.265625 1.871094 -1.128906 C 1.886719 -0.996094 1.921875 -0.878906 1.976562 -0.777344 C 2.03125 -0.683594 2.109375 -0.609375 2.210938 -0.5625 C 2.316406 -0.511719 2.457031 -0.488281 2.632812 -0.488281 C 2.714844 -0.488281 2.832031 -0.496094 2.992188 -0.511719 C 3.148438 -0.523438 3.261719 -0.542969 3.324219 -0.566406 Z "/>
</g>
<g id="glyph-0-11">
<path d="M -0.015625 1.570312 C -0.015625 1.410156 0.03125 1.277344 0.121094 1.175781 C 0.210938 1.070312 0.320312 1.019531 0.453125 1.019531 C 0.558594 1.019531 0.648438 1.039062 0.722656 1.078125 C 0.796875 1.117188 0.863281 1.167969 0.921875 1.230469 C 0.972656 1.277344 1.023438 1.34375 1.078125 1.425781 C 1.132812 1.511719 1.179688 1.582031 1.210938 1.636719 C 1.375 1.546875 1.566406 1.320312 1.792969 0.949219 C 2.019531 0.578125 2.183594 0.253906 2.285156 -0.0273438 C 1.976562 -0.796875 1.695312 -1.488281 1.445312 -2.09375 C 1.195312 -2.703125 0.933594 -3.332031 0.660156 -3.984375 C 0.597656 -4.132812 0.492188 -4.25 0.347656 -4.332031 C 0.199219 -4.417969 0.0546875 -4.46875 -0.09375 -4.492188 L -0.09375 -4.8125 L 2.105469 -4.8125 L 2.105469 -4.472656 C 2.007812 -4.46875 1.890625 -4.449219 1.753906 -4.410156 C 1.617188 -4.375 1.546875 -4.332031 1.546875 -4.28125 C 1.546875 -4.261719 1.554688 -4.230469 1.570312 -4.183594 C 1.585938 -4.140625 1.601562 -4.09375 1.621094 -4.042969 C 1.746094 -3.722656 1.933594 -3.257812 2.1875 -2.652344 C 2.441406 -2.042969 2.636719 -1.558594 2.777344 -1.195312 C 2.921875 -1.542969 3.074219 -1.902344 3.234375 -2.273438 C 3.390625 -2.648438 3.566406 -3.085938 3.761719 -3.59375 C 3.785156 -3.65625 3.820312 -3.742188 3.859375 -3.851562 C 3.902344 -3.960938 3.925781 -4.054688 3.925781 -4.132812 C 3.925781 -4.214844 3.851562 -4.292969 3.703125 -4.367188 C 3.554688 -4.441406 3.414062 -4.484375 3.28125 -4.5 L 3.28125 -4.8125 L 5.070312 -4.8125 L 5.070312 -4.511719 C 4.96875 -4.496094 4.84375 -4.4375 4.683594 -4.34375 C 4.523438 -4.246094 4.40625 -4.109375 4.328125 -3.9375 C 3.9375 -3.039062 3.59375 -2.21875 3.292969 -1.480469 C 2.992188 -0.742188 2.765625 -0.195312 2.609375 0.152344 C 2.402344 0.605469 2.21875 0.960938 2.058594 1.21875 C 1.898438 1.472656 1.738281 1.675781 1.585938 1.820312 C 1.4375 1.957031 1.300781 2.050781 1.179688 2.097656 C 1.058594 2.144531 0.929688 2.167969 0.800781 2.167969 C 0.546875 2.167969 0.347656 2.109375 0.203125 1.988281 C 0.0585938 1.867188 -0.015625 1.726562 -0.015625 1.570312 Z "/>
</g>
<g id="glyph-0-12">
<path d="M 2.230469 -4.167969 C 2.230469 -3.984375 2.164062 -3.832031 2.035156 -3.699219 C 1.902344 -3.570312 1.746094 -3.507812 1.5625 -3.507812 C 1.378906 -3.507812 1.222656 -3.570312 1.089844 -3.699219 C 0.960938 -3.832031 0.894531 -3.984375 0.894531 -4.167969 C 0.894531 -4.347656 0.957031 -4.503906 1.089844 -4.636719 C 1.21875 -4.769531 1.375 -4.832031 1.5625 -4.835938 C 1.75 -4.832031 1.90625 -4.769531 2.035156 -4.636719 C 2.167969 -4.503906 2.230469 -4.347656 2.230469 -4.167969 M 2.230469 -0.5625 C 2.230469 -0.378906 2.164062 -0.222656 2.035156 -0.09375 C 1.902344 0.0351562 1.746094 0.0976562 1.5625 0.0976562 C 1.378906 0.0976562 1.222656 0.0351562 1.089844 -0.09375 C 0.960938 -0.222656 0.894531 -0.378906 0.894531 -0.5625 C 0.894531 -0.742188 0.960938 -0.902344 1.089844 -1.03125 C 1.222656 -1.164062 1.378906 -1.230469 1.5625 -1.230469 C 1.746094 -1.230469 1.902344 -1.164062 2.035156 -1.03125 C 2.164062 -0.902344 2.230469 -0.742188 2.230469 -0.5625 Z "/>
</g>
<g id="glyph-0-13">
<path d="M 6.074219 -6.109375 C 6.378906 -5.789062 6.621094 -5.40625 6.792969 -4.953125 C 6.964844 -4.503906 7.050781 -4.003906 7.050781 -3.457031 C 7.050781 -2.90625 6.960938 -2.40625 6.789062 -1.957031 C 6.609375 -1.507812 6.367188 -1.125 6.054688 -0.8125 C 5.75 -0.5 5.398438 -0.257812 5 -0.0859375 C 4.601562 0.0820312 4.171875 0.164062 3.71875 0.164062 C 3.238281 0.164062 2.792969 0.0742188 2.386719 -0.105469 C 1.976562 -0.285156 1.625 -0.539062 1.332031 -0.859375 C 1.039062 -1.175781 0.808594 -1.558594 0.640625 -2.007812 C 0.472656 -2.460938 0.390625 -2.941406 0.390625 -3.457031 C 0.390625 -4.019531 0.476562 -4.523438 0.65625 -4.964844 C 0.828125 -5.40625 1.074219 -5.785156 1.382812 -6.109375 C 1.6875 -6.425781 2.042969 -6.671875 2.449219 -6.839844 C 2.855469 -7.011719 3.277344 -7.09375 3.71875 -7.09375 C 4.179688 -7.09375 4.613281 -7.007812 5.019531 -6.835938 C 5.425781 -6.664062 5.777344 -6.421875 6.074219 -6.109375 M 5.347656 -1.195312 C 5.527344 -1.492188 5.660156 -1.828125 5.746094 -2.203125 C 5.828125 -2.578125 5.867188 -2.996094 5.867188 -3.457031 C 5.867188 -3.933594 5.824219 -4.367188 5.730469 -4.765625 C 5.636719 -5.164062 5.5 -5.5 5.320312 -5.78125 C 5.144531 -6.058594 4.917969 -6.273438 4.648438 -6.429688 C 4.378906 -6.582031 4.070312 -6.660156 3.71875 -6.660156 C 3.328125 -6.660156 3 -6.570312 2.726562 -6.390625 C 2.449219 -6.210938 2.226562 -5.972656 2.054688 -5.671875 C 1.894531 -5.386719 1.773438 -5.050781 1.691406 -4.667969 C 1.613281 -4.285156 1.570312 -3.878906 1.570312 -3.457031 C 1.570312 -2.988281 1.613281 -2.566406 1.699219 -2.1875 C 1.785156 -1.808594 1.917969 -1.476562 2.101562 -1.179688 C 2.273438 -0.894531 2.496094 -0.671875 2.765625 -0.511719 C 3.03125 -0.347656 3.351562 -0.269531 3.71875 -0.269531 C 4.070312 -0.269531 4.382812 -0.351562 4.664062 -0.511719 C 4.941406 -0.675781 5.171875 -0.902344 5.347656 -1.195312 Z "/>
</g>
<g id="glyph-0-14">
<path d="M 3.421875 1.601562 C 2.535156 1.492188 1.835938 1.042969 1.332031 0.257812 C 0.824219 -0.527344 0.570312 -1.582031 0.570312 -2.910156 C 0.570312 -4.261719 0.824219 -5.332031 1.332031 -6.121094 C 1.835938 -6.910156 2.535156 -7.363281 3.421875 -7.480469 L 3.421875 -7.074219 C 2.796875 -6.960938 2.324219 -6.5625 1.996094 -5.878906 C 1.671875 -5.195312 1.507812 -4.203125 1.507812 -2.898438 C 1.507812 -1.660156 1.667969 -0.695312 1.988281 -0.0078125 C 2.304688 0.679688 2.785156 1.082031 3.421875 1.203125 Z "/>
</g>
<g id="glyph-0-15">
<path d="M 5.667969 0 L 3.316406 0 L 3.316406 -0.320312 C 3.390625 -0.328125 3.472656 -0.335938 3.5625 -0.34375 C 3.652344 -0.347656 3.726562 -0.359375 3.785156 -0.382812 C 3.875 -0.410156 3.941406 -0.460938 3.988281 -0.535156 C 4.03125 -0.609375 4.054688 -0.703125 4.054688 -0.820312 L 4.054688 -3.296875 C 4.054688 -3.636719 3.972656 -3.902344 3.808594 -4.085938 C 3.648438 -4.273438 3.453125 -4.363281 3.21875 -4.367188 C 3.046875 -4.363281 2.890625 -4.339844 2.746094 -4.285156 C 2.601562 -4.230469 2.476562 -4.164062 2.363281 -4.085938 C 2.257812 -4.011719 2.171875 -3.929688 2.105469 -3.84375 C 2.042969 -3.757812 1.996094 -3.691406 1.96875 -3.636719 L 1.96875 -0.867188 C 1.96875 -0.757812 1.992188 -0.667969 2.035156 -0.59375 C 2.082031 -0.523438 2.148438 -0.46875 2.242188 -0.429688 C 2.308594 -0.398438 2.382812 -0.371094 2.464844 -0.355469 C 2.542969 -0.339844 2.625 -0.328125 2.710938 -0.320312 L 2.710938 0 L 0.351562 0 L 0.351562 -0.320312 C 0.425781 -0.328125 0.503906 -0.335938 0.582031 -0.34375 C 0.664062 -0.347656 0.734375 -0.359375 0.789062 -0.378906 C 0.882812 -0.410156 0.949219 -0.460938 0.992188 -0.535156 C 1.039062 -0.609375 1.058594 -0.703125 1.058594 -0.820312 L 1.058594 -3.789062 C 1.058594 -3.902344 1.035156 -4.003906 0.988281 -4.09375 C 0.941406 -4.1875 0.875 -4.261719 0.789062 -4.320312 C 0.730469 -4.359375 0.65625 -4.390625 0.570312 -4.40625 C 0.488281 -4.425781 0.394531 -4.4375 0.296875 -4.445312 L 0.296875 -4.765625 L 1.898438 -4.875 L 1.96875 -4.804688 L 1.96875 -4.125 L 1.992188 -4.125 C 2.070312 -4.203125 2.167969 -4.296875 2.285156 -4.40625 C 2.402344 -4.515625 2.511719 -4.605469 2.617188 -4.671875 C 2.738281 -4.75 2.882812 -4.816406 3.046875 -4.867188 C 3.210938 -4.921875 3.398438 -4.945312 3.609375 -4.945312 C 4.070312 -4.945312 4.414062 -4.800781 4.636719 -4.515625 C 4.859375 -4.226562 4.96875 -3.84375 4.96875 -3.363281 L 4.96875 -0.859375 C 4.96875 -0.746094 4.992188 -0.652344 5.03125 -0.582031 C 5.070312 -0.511719 5.136719 -0.460938 5.230469 -0.421875 C 5.308594 -0.386719 5.375 -0.363281 5.433594 -0.351562 C 5.488281 -0.339844 5.566406 -0.328125 5.667969 -0.320312 Z "/>
</g>
<g id="glyph-0-16">
<path d="M 4.394531 -2.390625 L 0.71875 -2.390625 L 0.71875 -2.933594 C 0.84375 -3.144531 1.039062 -3.355469 1.296875 -3.558594 C 1.558594 -3.765625 1.875 -3.984375 2.242188 -4.214844 C 2.355469 -4.285156 2.480469 -4.378906 2.621094 -4.5 C 2.757812 -4.617188 2.863281 -4.726562 2.9375 -4.828125 C 3.039062 -4.960938 3.109375 -5.09375 3.160156 -5.238281 C 3.210938 -5.378906 3.238281 -5.554688 3.238281 -5.773438 C 3.238281 -6.085938 3.15625 -6.320312 3 -6.484375 C 2.839844 -6.648438 2.628906 -6.726562 2.367188 -6.726562 C 2.183594 -6.726562 2.023438 -6.695312 1.890625 -6.632812 C 1.761719 -6.570312 1.664062 -6.496094 1.605469 -6.410156 C 1.625 -6.332031 1.648438 -6.246094 1.671875 -6.144531 C 1.695312 -6.046875 1.710938 -5.941406 1.710938 -5.835938 C 1.710938 -5.734375 1.664062 -5.644531 1.574219 -5.570312 C 1.484375 -5.496094 1.355469 -5.460938 1.179688 -5.460938 C 1.023438 -5.460938 0.914062 -5.511719 0.847656 -5.613281 C 0.78125 -5.714844 0.746094 -5.828125 0.746094 -5.957031 C 0.746094 -6.253906 0.917969 -6.515625 1.257812 -6.75 C 1.597656 -6.980469 1.992188 -7.09375 2.441406 -7.09375 C 2.953125 -7.09375 3.367188 -6.972656 3.691406 -6.726562 C 4.011719 -6.480469 4.175781 -6.152344 4.175781 -5.738281 C 4.175781 -5.492188 4.136719 -5.28125 4.066406 -5.101562 C 3.992188 -4.917969 3.894531 -4.765625 3.773438 -4.640625 C 3.648438 -4.503906 3.503906 -4.390625 3.347656 -4.292969 C 3.1875 -4.195312 3.027344 -4.105469 2.855469 -4.023438 C 2.648438 -3.921875 2.394531 -3.789062 2.097656 -3.617188 C 1.800781 -3.449219 1.554688 -3.273438 1.363281 -3.09375 L 4.394531 -3.09375 Z "/>
</g>
<g id="glyph-0-17">
<path d="M 3.179688 -2.910156 C 3.179688 -1.582031 2.925781 -0.527344 2.417969 0.257812 C 1.914062 1.042969 1.214844 1.492188 0.328125 1.601562 L 0.328125 1.203125 C 0.964844 1.082031 1.445312 0.679688 1.761719 -0.0078125 C 2.082031 -0.695312 2.242188 -1.660156 2.242188 -2.898438 C 2.242188 -4.203125 2.078125 -5.195312 1.753906 -5.878906 C 1.425781 -6.5625 0.953125 -6.960938 0.328125 -7.074219 L 0.328125 -7.480469 C 1.214844 -7.363281 1.914062 -6.910156 2.417969 -6.121094 C 2.925781 -5.332031 3.179688 -4.261719 3.179688 -2.910156 Z "/>
</g>
</g>
</defs>
<g fill="rgb(96.862745%, 63.137255%, 63.921569%)" fill-opacity="1">
<use xlink:href="#glyph-0-0" x="30" y="29.169922"/>
<use xlink:href="#glyph-0-1" x="36" y="29.169922"/>
<use xlink:href="#glyph-0-2" x="39" y="29.169922"/>
<use xlink:href="#glyph-0-3" x="48" y="29.169922"/>
<use xlink:href="#glyph-0-4" x="53" y="29.169922"/>
<use xlink:href="#glyph-0-5" x="55" y="29.169922"/>
<use xlink:href="#glyph-0-6" x="61" y="29.169922"/>
<use xlink:href="#glyph-0-2" x="66" y="29.169922"/>
<use xlink:href="#glyph-0-7" x="75" y="29.169922"/>
<use xlink:href="#glyph-0-8" x="81" y="29.169922"/>
<use xlink:href="#glyph-0-3" x="84" y="29.169922"/>
<use xlink:href="#glyph-0-9" x="89" y="29.169922"/>
<use xlink:href="#glyph-0-1" x="94" y="29.169922"/>
<use xlink:href="#glyph-0-10" x="97" y="29.169922"/>
<use xlink:href="#glyph-0-11" x="100" y="29.169922"/>
<use xlink:href="#glyph-0-12" x="105" y="29.169922"/>
<use xlink:href="#glyph-0-4" x="108" y="29.169922"/>
<use xlink:href="#glyph-0-13" x="110" y="29.169922"/>
<use xlink:href="#glyph-0-14" x="117" y="29.169922"/>
<use xlink:href="#glyph-0-15" x="121" y="29.169922"/>
<use xlink:href="#glyph-0-16" x="127" y="29.169922"/>
<use xlink:href="#glyph-0-17" x="132" y="29.169922"/>
</g>
</svg>
